<mxfile host="www.draw.io" modified="2020-02-15T14:37:23.434Z" agent="Mozilla/5.0 (Macintosh; Intel Mac OS X 10_13_6) AppleWebKit/537.36 (KHTML, like Gecko) Chrome/79.0.3945.130 Safari/537.36" etag="Cdt9CrIqCa4HzRXTjYsP" version="12.7.0" type="github">
  <diagram name="Page-1" id="13e1069c-82ec-6db2-03f1-153e76fe0fe0">
    <mxGraphModel dx="897" dy="623" grid="1" gridSize="10" guides="1" tooltips="1" connect="1" arrows="1" fold="1" page="1" pageScale="1" pageWidth="1100" pageHeight="850" background="#ffffff" math="0" shadow="0">
      <root>
        <mxCell id="0"/>
        <mxCell id="1" parent="0"/>
        <mxCell id="n-Sl1GrMygXtau_glaCF-22" value="" style="rounded=0;whiteSpace=wrap;html=1;" parent="1" vertex="1">
          <mxGeometry x="230" y="30" width="430" height="690" as="geometry"/>
        </mxCell>
        <mxCell id="n-Sl1GrMygXtau_glaCF-20" value="" style="rounded=0;whiteSpace=wrap;html=1;" parent="1" vertex="1">
          <mxGeometry x="670" y="30" width="120" height="690" as="geometry"/>
        </mxCell>
        <mxCell id="n-Sl1GrMygXtau_glaCF-18" value="" style="rounded=0;whiteSpace=wrap;html=1;" parent="1" vertex="1">
          <mxGeometry x="90" y="30" width="120" height="690" as="geometry"/>
        </mxCell>
        <mxCell id="7baba1c4bc27f4b0-2" value="新用户领券" style="shape=umlLifeline;perimeter=lifelinePerimeter;whiteSpace=wrap;html=1;container=1;collapsible=0;recursiveResize=0;outlineConnect=0;rounded=1;shadow=0;comic=0;labelBackgroundColor=none;strokeWidth=1;fontFamily=Verdana;fontSize=12;align=center;" parent="1" vertex="1">
          <mxGeometry x="240" y="80" width="100" height="580" as="geometry"/>
        </mxCell>
        <mxCell id="7baba1c4bc27f4b0-10" value="" style="html=1;points=[];perimeter=orthogonalPerimeter;rounded=0;shadow=0;comic=0;labelBackgroundColor=none;strokeWidth=1;fontFamily=Verdana;fontSize=12;align=center;" parent="7baba1c4bc27f4b0-2" vertex="1">
          <mxGeometry x="45" y="100" width="10" height="200" as="geometry"/>
        </mxCell>
        <mxCell id="7baba1c4bc27f4b0-3" value="商品详情页" style="shape=umlLifeline;perimeter=lifelinePerimeter;whiteSpace=wrap;html=1;container=1;collapsible=0;recursiveResize=0;outlineConnect=0;rounded=1;shadow=0;comic=0;labelBackgroundColor=none;strokeWidth=1;fontFamily=Verdana;fontSize=12;align=center;" parent="1" vertex="1">
          <mxGeometry x="400" y="80" width="100" height="580" as="geometry"/>
        </mxCell>
        <mxCell id="7baba1c4bc27f4b0-13" value="" style="html=1;points=[];perimeter=orthogonalPerimeter;rounded=0;shadow=0;comic=0;labelBackgroundColor=none;strokeWidth=1;fontFamily=Verdana;fontSize=12;align=center;" parent="7baba1c4bc27f4b0-3" vertex="1">
          <mxGeometry x="45" y="250" width="10" height="70" as="geometry"/>
        </mxCell>
        <mxCell id="7baba1c4bc27f4b0-4" value="确认订单" style="shape=umlLifeline;perimeter=lifelinePerimeter;whiteSpace=wrap;html=1;container=1;collapsible=0;recursiveResize=0;outlineConnect=0;rounded=1;shadow=0;comic=0;labelBackgroundColor=none;strokeWidth=1;fontFamily=Verdana;fontSize=12;align=center;" parent="1" vertex="1">
          <mxGeometry x="540" y="80" width="100" height="580" as="geometry"/>
        </mxCell>
        <mxCell id="7baba1c4bc27f4b0-16" value="" style="html=1;points=[];perimeter=orthogonalPerimeter;rounded=0;shadow=0;comic=0;labelBackgroundColor=none;strokeWidth=1;fontFamily=Verdana;fontSize=12;align=center;" parent="7baba1c4bc27f4b0-4" vertex="1">
          <mxGeometry x="45" y="270" width="10" height="230" as="geometry"/>
        </mxCell>
        <mxCell id="7baba1c4bc27f4b0-34" value="" style="html=1;points=[];perimeter=orthogonalPerimeter;rounded=0;shadow=0;comic=0;labelBackgroundColor=none;strokeWidth=1;fontFamily=Verdana;fontSize=12;align=center;" parent="7baba1c4bc27f4b0-4" vertex="1">
          <mxGeometry x="50" y="350" width="10" height="70" as="geometry"/>
        </mxCell>
        <mxCell id="7baba1c4bc27f4b0-35" value="确认订单" style="html=1;verticalAlign=bottom;endArrow=block;labelBackgroundColor=none;fontFamily=Verdana;fontSize=12;elbow=vertical;edgeStyle=orthogonalEdgeStyle;curved=1;entryX=1;entryY=0.286;entryPerimeter=0;exitX=1.038;exitY=0.345;exitPerimeter=0;" parent="7baba1c4bc27f4b0-4" source="7baba1c4bc27f4b0-16" target="7baba1c4bc27f4b0-34" edge="1">
          <mxGeometry relative="1" as="geometry">
            <mxPoint x="-75" y="280" as="sourcePoint"/>
            <mxPoint x="55" y="280" as="targetPoint"/>
            <Array as="points">
              <mxPoint x="110" y="332"/>
              <mxPoint x="110" y="370"/>
            </Array>
          </mxGeometry>
        </mxCell>
        <mxCell id="7baba1c4bc27f4b0-36" value="完成支付" style="html=1;verticalAlign=bottom;endArrow=block;labelBackgroundColor=none;fontFamily=Verdana;fontSize=12;elbow=vertical;edgeStyle=orthogonalEdgeStyle;curved=1;exitX=1.066;exitY=0.713;exitPerimeter=0;" parent="7baba1c4bc27f4b0-4" source="7baba1c4bc27f4b0-34" edge="1">
          <mxGeometry relative="1" as="geometry">
            <mxPoint x="70.33333333333326" y="400" as="sourcePoint"/>
            <mxPoint x="55" y="439" as="targetPoint"/>
            <Array as="points">
              <mxPoint x="110" y="400"/>
              <mxPoint x="110" y="439"/>
            </Array>
          </mxGeometry>
        </mxCell>
        <mxCell id="7baba1c4bc27f4b0-5" value="消息服务" style="shape=umlLifeline;perimeter=lifelinePerimeter;whiteSpace=wrap;html=1;container=1;collapsible=0;recursiveResize=0;outlineConnect=0;rounded=1;shadow=0;comic=0;labelBackgroundColor=none;strokeWidth=1;fontFamily=Verdana;fontSize=12;align=center;" parent="1" vertex="1">
          <mxGeometry x="680" y="80" width="100" height="580" as="geometry"/>
        </mxCell>
        <mxCell id="7baba1c4bc27f4b0-8" value="商品详情页" style="shape=umlLifeline;perimeter=lifelinePerimeter;whiteSpace=wrap;html=1;container=1;collapsible=0;recursiveResize=0;outlineConnect=0;rounded=1;shadow=0;comic=0;labelBackgroundColor=none;strokeWidth=1;fontFamily=Verdana;fontSize=12;align=center;" parent="1" vertex="1">
          <mxGeometry x="100" y="80" width="100" height="580" as="geometry"/>
        </mxCell>
        <mxCell id="7baba1c4bc27f4b0-9" value="" style="html=1;points=[];perimeter=orthogonalPerimeter;rounded=0;shadow=0;comic=0;labelBackgroundColor=none;strokeWidth=1;fontFamily=Verdana;fontSize=12;align=center;" parent="7baba1c4bc27f4b0-8" vertex="1">
          <mxGeometry x="45" y="100" width="10" height="480" as="geometry"/>
        </mxCell>
        <mxCell id="7baba1c4bc27f4b0-19" value="" style="html=1;points=[];perimeter=orthogonalPerimeter;rounded=0;shadow=0;comic=0;labelBackgroundColor=none;strokeWidth=1;fontFamily=Verdana;fontSize=12;align=center;" parent="1" vertex="1">
          <mxGeometry x="725" y="540" width="10" height="80" as="geometry"/>
        </mxCell>
        <mxCell id="7baba1c4bc27f4b0-30" value="发送小程序模版消息" style="html=1;verticalAlign=bottom;endArrow=open;dashed=1;endSize=8;labelBackgroundColor=none;fontFamily=Verdana;fontSize=12;edgeStyle=elbowEdgeStyle;elbow=vertical;exitX=0;exitY=0.471;exitDx=0;exitDy=0;exitPerimeter=0;" parent="1" source="n-Sl1GrMygXtau_glaCF-16" target="7baba1c4bc27f4b0-9" edge="1">
          <mxGeometry relative="1" as="geometry">
            <mxPoint x="800" y="626" as="targetPoint"/>
            <Array as="points">
              <mxPoint x="380" y="620"/>
              <mxPoint x="410" y="599"/>
              <mxPoint x="400" y="570"/>
              <mxPoint x="570" y="560"/>
              <mxPoint x="570" y="600"/>
            </Array>
            <mxPoint x="550" y="600" as="sourcePoint"/>
          </mxGeometry>
        </mxCell>
        <mxCell id="7baba1c4bc27f4b0-11" value="跳转&lt;br&gt;uid，标记来源" style="html=1;verticalAlign=bottom;endArrow=block;entryX=0;entryY=0;labelBackgroundColor=none;fontFamily=Verdana;fontSize=12;edgeStyle=elbowEdgeStyle;elbow=vertical;" parent="1" source="7baba1c4bc27f4b0-9" target="7baba1c4bc27f4b0-10" edge="1">
          <mxGeometry relative="1" as="geometry">
            <mxPoint x="220" y="190" as="sourcePoint"/>
          </mxGeometry>
        </mxCell>
        <mxCell id="7baba1c4bc27f4b0-14" value="跳转" style="html=1;verticalAlign=bottom;endArrow=block;labelBackgroundColor=none;fontFamily=Verdana;fontSize=12;edgeStyle=elbowEdgeStyle;elbow=vertical;exitX=1.2;exitY=0.748;exitDx=0;exitDy=0;exitPerimeter=0;" parent="1" source="7baba1c4bc27f4b0-10" target="7baba1c4bc27f4b0-3" edge="1">
          <mxGeometry relative="1" as="geometry">
            <mxPoint x="370" y="200" as="sourcePoint"/>
          </mxGeometry>
        </mxCell>
        <mxCell id="n-Sl1GrMygXtau_glaCF-2" value="" style="edgeStyle=orthogonalEdgeStyle;rounded=0;orthogonalLoop=1;jettySize=auto;html=1;" parent="1" source="n-Sl1GrMygXtau_glaCF-1" target="7baba1c4bc27f4b0-8" edge="1">
          <mxGeometry relative="1" as="geometry"/>
        </mxCell>
        <mxCell id="n-Sl1GrMygXtau_glaCF-5" value="点击购买" style="text;html=1;align=center;verticalAlign=middle;resizable=0;points=[];labelBackgroundColor=#ffffff;" parent="n-Sl1GrMygXtau_glaCF-2" vertex="1" connectable="0">
          <mxGeometry x="-0.1558" y="2" relative="1" as="geometry">
            <mxPoint as="offset"/>
          </mxGeometry>
        </mxCell>
        <mxCell id="n-Sl1GrMygXtau_glaCF-1" value="下单用户" style="shape=umlActor;verticalLabelPosition=bottom;labelBackgroundColor=#ffffff;verticalAlign=top;html=1;" parent="1" vertex="1">
          <mxGeometry x="20" y="340" width="30" height="60" as="geometry"/>
        </mxCell>
        <mxCell id="n-Sl1GrMygXtau_glaCF-7" value="" style="html=1;points=[];perimeter=orthogonalPerimeter;rounded=0;shadow=0;comic=0;labelBackgroundColor=none;strokeWidth=1;fontFamily=Verdana;fontSize=12;align=center;" parent="1" vertex="1">
          <mxGeometry x="290" y="230" width="10" height="70" as="geometry"/>
        </mxCell>
        <mxCell id="n-Sl1GrMygXtau_glaCF-8" value="领取" style="html=1;verticalAlign=bottom;endArrow=block;labelBackgroundColor=none;fontFamily=Verdana;fontSize=12;elbow=vertical;edgeStyle=orthogonalEdgeStyle;curved=1;entryX=1;entryY=0.286;entryPerimeter=0;exitX=1.038;exitY=0.345;exitPerimeter=0;" parent="1" target="n-Sl1GrMygXtau_glaCF-7" edge="1">
          <mxGeometry relative="1" as="geometry">
            <mxPoint x="295.3800000000001" y="212.10000000000002" as="sourcePoint"/>
            <mxPoint x="295" y="160" as="targetPoint"/>
            <Array as="points">
              <mxPoint x="350" y="212"/>
              <mxPoint x="350" y="250"/>
            </Array>
          </mxGeometry>
        </mxCell>
        <mxCell id="n-Sl1GrMygXtau_glaCF-12" value="立即购买" style="html=1;verticalAlign=bottom;endArrow=block;entryX=0;entryY=0;labelBackgroundColor=none;fontFamily=Verdana;fontSize=12;edgeStyle=elbowEdgeStyle;elbow=vertical;" parent="1" edge="1">
          <mxGeometry relative="1" as="geometry">
            <mxPoint x="455" y="370" as="sourcePoint"/>
            <mxPoint x="585" y="370" as="targetPoint"/>
          </mxGeometry>
        </mxCell>
        <mxCell id="n-Sl1GrMygXtau_glaCF-13" value="消息通知" style="html=1;verticalAlign=bottom;endArrow=block;" parent="1" target="7baba1c4bc27f4b0-5" edge="1">
          <mxGeometry width="80" relative="1" as="geometry">
            <mxPoint x="590" y="559.5" as="sourcePoint"/>
            <mxPoint x="680" y="559.5" as="targetPoint"/>
          </mxGeometry>
        </mxCell>
        <mxCell id="n-Sl1GrMygXtau_glaCF-16" value="" style="html=1;points=[];perimeter=orthogonalPerimeter;rounded=0;shadow=0;comic=0;labelBackgroundColor=none;strokeWidth=1;fontFamily=Verdana;fontSize=12;align=center;" parent="1" vertex="1">
          <mxGeometry x="725" y="590" width="10" height="70" as="geometry"/>
        </mxCell>
        <mxCell id="n-Sl1GrMygXtau_glaCF-17" value="更新推手佣金" style="html=1;verticalAlign=bottom;endArrow=block;labelBackgroundColor=none;fontFamily=Verdana;fontSize=12;elbow=vertical;edgeStyle=orthogonalEdgeStyle;curved=1;entryX=1;entryY=0.286;entryPerimeter=0;exitX=1.038;exitY=0.345;exitPerimeter=0;" parent="1" target="n-Sl1GrMygXtau_glaCF-16" edge="1">
          <mxGeometry relative="1" as="geometry">
            <mxPoint x="730.3800000000001" y="572.1" as="sourcePoint"/>
            <mxPoint x="730" y="520" as="targetPoint"/>
            <Array as="points">
              <mxPoint x="785" y="572"/>
              <mxPoint x="785" y="610"/>
            </Array>
          </mxGeometry>
        </mxCell>
        <mxCell id="n-Sl1GrMygXtau_glaCF-19" value="氧乐享小程序" style="text;strokeColor=none;fillColor=none;html=1;fontSize=15;fontStyle=1;verticalAlign=middle;align=center;" parent="1" vertex="1">
          <mxGeometry x="100" y="40" width="100" height="30" as="geometry"/>
        </mxCell>
        <mxCell id="n-Sl1GrMygXtau_glaCF-21" value="氧乐享后台" style="text;strokeColor=none;fillColor=none;html=1;fontSize=15;fontStyle=1;verticalAlign=middle;align=center;" parent="1" vertex="1">
          <mxGeometry x="680" y="40" width="100" height="30" as="geometry"/>
        </mxCell>
        <mxCell id="n-Sl1GrMygXtau_glaCF-23" value="安心购小程序" style="text;strokeColor=none;fillColor=none;html=1;fontSize=15;fontStyle=1;verticalAlign=middle;align=center;" parent="1" vertex="1">
          <mxGeometry x="390" y="40" width="100" height="30" as="geometry"/>
        </mxCell>
        <mxCell id="n-Sl1GrMygXtau_glaCF-24" value="氧乐享下单支付流程" style="text;strokeColor=none;fillColor=none;html=1;fontSize=15;fontStyle=1;verticalAlign=middle;align=center;" parent="1" vertex="1">
          <mxGeometry x="20" width="100" height="30" as="geometry"/>
        </mxCell>
      </root>
    </mxGraphModel>
  </diagram>
</mxfile>
